<svg width="26" height="29" viewBox="0 0 26 29" fill="none" xmlns="http://www.w3.org/2000/svg">
<path fill-rule="evenodd" clip-rule="evenodd" d="M12 4C12 3.44772 12.4477 3 13 3C20.1797 3 26 8.8203 26 16C26 23.1797 20.1797 29 13 29C5.8203 29 0 23.1797 0 16C0 13.4786 0.525707 10.0601 3.29289 7.29289C3.68342 6.90237 4.31658 6.90237 4.70711 7.29289C5.09763 7.68342 5.09763 8.31658 4.70711 8.70711C2.47429 10.9399 2 13.7306 2 16C2 22.0751 6.92487 27 13 27C19.0751 27 24 22.0751 24 16C24 9.92487 19.0751 5 13 5C12.4477 5 12 4.55228 12 4Z" fill="#5B6EB3"/>
<path d="M14 0.609199V7.38706C14 7.93366 13.2895 8.20088 12.8684 7.82434L9.19737 4.43541C8.93421 4.19247 8.93421 3.81593 9.19737 3.57299L12.8816 0.184064C13.2895 -0.20463 14 0.0625973 14 0.609199Z" fill="#5B6EB3"/>
<path fill-rule="evenodd" clip-rule="evenodd" d="M18.2433 21.169C17.8738 21.5795 17.2415 21.6128 16.831 21.2433L11.831 16.7433C11.6203 16.5537 11.5 16.2835 11.5 16V11C11.5 10.4477 11.9477 10 12.5 10C13.0523 10 13.5 10.4477 13.5 11V15.5546L18.169 19.7567C18.5795 20.1262 18.6128 20.7585 18.2433 21.169Z" fill="#5B6EB3"/>
</svg>
